# Blender 3.2.0
# www.blender.org
mtllib train_track_counterclockwise.mtl.mtl
o Cube.001
v 2.114459 0.183741 0.111558
v 2.114459 -0.005795 0.111558
v 1.888053 0.183741 -1.875586
v 1.888053 -0.005795 -1.875586
v 1.707326 0.183741 0.157945
v 1.707326 -0.005795 0.157945
v 1.480919 0.183741 -1.829199
v 1.480919 -0.005795 -1.829199
v 2.138637 0.369594 -1.346600
v 2.138637 0.180059 -1.346600
v 2.138637 0.369594 -1.609915
v 2.138637 0.180059 -1.609915
v 2.138637 0.369594 -0.146600
v 2.138637 0.180059 -0.146600
v 2.138637 0.369594 -0.409915
v 2.138637 0.180059 -0.409915
v 0.564043 0.369594 -0.968573
v 0.564043 0.180059 -0.968573
v 0.444500 0.369594 -1.203189
v 0.444500 0.180059 -1.203189
v 1.108831 0.369594 0.100635
v 1.108831 0.180059 0.100635
v 0.989289 0.369594 -0.133981
v 0.989289 0.180059 -0.133981
v 1.596069 0.369594 -1.303899
v 1.596069 0.180059 -1.303899
v 1.554877 0.369594 -1.563972
v 1.554877 0.180059 -1.563972
v 1.783790 0.369594 -0.118673
v 1.783790 0.180059 -0.118673
v 1.742599 0.369594 -0.378746
v 1.742599 0.180059 -0.378746
v 1.066860 0.369594 -1.176847
v 1.066860 0.180059 -1.176847
v 0.985492 0.369594 -1.427275
v 0.985492 0.180059 -1.427275
v 1.437681 0.369594 -0.035579
v 1.437681 0.180059 -0.035579
v 1.356312 0.369594 -0.286007
v 1.356312 0.180059 -0.286007
v -1.329705 0.369594 2.121742
v -1.329705 0.180059 2.121742
v -1.593020 0.369594 2.121742
v -1.593020 0.180059 2.121742
v -0.129705 0.369594 2.121743
v -0.129705 0.180059 2.121743
v -0.393021 0.369594 2.121742
v -0.393021 0.180059 2.121742
v 0.099997 0.369594 -0.684205
v 0.099997 0.180059 -0.684205
v -0.054776 0.369594 -0.897232
v -0.054776 0.180059 -0.897232
v 0.805339 0.369594 0.286615
v 0.805339 0.180059 0.286615
v 0.650566 0.369594 0.073589
v 0.650566 0.180059 0.073589
v -0.313851 0.369594 -0.330746
v -0.313851 0.180059 -0.330746
v -0.500043 0.369594 -0.516938
v -0.500043 0.180059 -0.516938
v 0.534677 0.369594 0.517782
v 0.534677 0.180059 0.517782
v 0.348485 0.369594 0.331590
v 0.348485 0.180059 0.331590
v -0.667311 0.369594 0.083102
v -0.667311 0.180059 0.083102
v -0.880337 0.369594 -0.071671
v -0.880337 0.180059 -0.071671
v 0.303510 0.369594 0.788444
v 0.303510 0.180059 0.788444
v 0.090483 0.369594 0.633671
v 0.090483 0.180059 0.633671
v -0.951679 0.369594 0.547148
v -0.951679 0.180059 0.547148
v -1.186294 0.369594 0.427606
v -1.186294 0.180059 0.427606
v 0.117529 0.369594 1.091937
v 0.117529 0.180059 1.091937
v -0.117086 0.369594 0.972394
v -0.117086 0.180059 0.972394
v -1.159953 0.369594 1.049966
v -1.159953 0.180059 1.049966
v -1.410380 0.369594 0.968597
v -1.410380 0.180059 0.968597
v -0.018685 0.369594 1.420786
v -0.018685 0.180059 1.420786
v -0.269113 0.369594 1.339417
v -0.269113 0.180059 1.339417
v -1.287004 0.369594 1.579174
v -1.287004 0.180059 1.579174
v -1.547078 0.369594 1.537983
v -1.547078 0.180059 1.537983
v -0.101778 0.369594 1.766896
v -0.101778 0.180059 1.766896
v -0.361852 0.369594 1.725704
v -0.361852 0.180059 1.725704
v -0.393021 0.180059 2.121742
v -0.393021 0.369594 2.121742
v -0.129705 0.369594 2.121743
v -0.129705 0.180059 2.121743
v -0.361852 0.180059 1.725704
v -0.361852 0.369594 1.725704
v -0.101778 0.369594 1.766896
v -0.101778 0.180059 1.766896
v 0.173789 0.183741 1.696536
v 0.173789 -0.005795 1.696536
v -1.813746 0.183741 1.473598
v -1.813746 -0.005795 1.473598
v 0.128113 0.183741 2.103750
v 0.128113 -0.005795 2.103750
v -1.859423 0.183741 1.880812
v -1.859423 -0.005795 1.880812
v 1.673119 0.183741 0.166053
v 1.673119 -0.005795 0.166053
v 1.015386 0.183741 -1.722700
v 1.015386 -0.005795 -1.722700
v 1.286145 0.183741 0.300812
v 1.286145 -0.005795 0.300812
v 0.628411 0.183741 -1.587941
v 0.628411 -0.005795 -1.587941
v 1.232566 0.183741 0.327178
v 1.232566 -0.005795 0.327178
v 0.155024 0.183741 -1.357727
v 0.155024 -0.005795 -1.357727
v 0.887356 0.183741 0.547949
v 0.887356 -0.005795 0.547949
v -0.190185 0.183741 -1.136956
v -0.190185 -0.005795 -1.136956
v 0.865629 0.183741 0.565826
v 0.865629 -0.005795 0.565826
v -0.551051 0.183741 -0.845917
v -0.551051 -0.005795 -0.845917
v 0.576385 0.183741 0.856081
v 0.576385 -0.005795 0.856081
v -0.840294 0.183741 -0.555663
v -0.840294 -0.005795 -0.555663
v 0.548251 0.183741 0.892068
v 0.548251 -0.005795 0.892068
v -1.149692 0.183741 -0.164809
v -1.149692 -0.005795 -0.164809
v 0.331714 0.183741 1.239949
v 0.331714 -0.005795 1.239949
v -1.366229 0.183741 0.183072
v -1.366229 -0.005795 0.183072
v 0.318307 0.183741 1.268615
v 0.318307 -0.005795 1.268615
v -1.569295 0.183741 0.607586
v -1.569295 -0.005795 0.607586
v 0.182873 0.183741 1.655354
v 0.182873 -0.005795 1.655354
v -1.704729 0.183741 0.994325
v -1.704729 -0.005795 0.994325
vn -0.0000 1.0000 -0.0000
vn -0.1132 -0.0000 -0.9936
vn -0.9936 -0.0000 0.1132
vn -0.0000 -1.0000 -0.0000
vn 0.9936 -0.0000 -0.1132
vn 0.1132 -0.0000 0.9936
vn 1.0000 -0.0000 -0.0000
vn 0.8910 -0.0000 -0.4540
vn 0.9877 -0.0000 -0.1564
vn 0.9511 -0.0000 -0.3090
vn -0.0000 -0.0000 1.0000
vn 0.0785 -0.0000 0.9969
vn 0.8090 -0.0000 -0.5878
vn 0.7071 -0.0000 -0.7071
vn 0.5878 -0.0000 -0.8090
vn 0.4540 -0.0000 -0.8910
vn 0.3090 -0.0000 -0.9511
vn 0.1564 -0.0000 -0.9877
vn -0.0785 -0.0000 -0.9969
vn 0.2334 -0.0000 0.9724
vn -0.2334 -0.0000 -0.9724
vn 0.3827 -0.0000 0.9239
vn -0.3827 -0.0000 -0.9239
vn 0.5225 -0.0000 0.8526
vn -0.5225 -0.0000 -0.8526
vn 0.6494 -0.0000 0.7604
vn -0.6494 -0.0000 -0.7604
vn 0.7604 -0.0000 0.6494
vn -0.7604 -0.0000 -0.6494
vn 0.8526 -0.0000 0.5225
vn -0.8526 -0.0000 -0.5225
vn 0.9239 -0.0000 0.3827
vn -0.9239 -0.0000 -0.3827
vn 0.9724 -0.0000 0.2334
vn -0.9724 -0.0000 -0.2334
vn 0.9969 -0.0000 0.0785
vn -0.9969 -0.0000 -0.0785
vn -0.9938 -0.0000 -0.1115
vn -0.1115 -0.0000 0.9938
vn 0.1115 -0.0000 -0.9938
vn 0.9938 -0.0000 0.1115
vn -0.3289 -0.0000 -0.9444
vn -0.9444 -0.0000 0.3289
vn 0.9444 -0.0000 -0.3289
vn 0.3289 -0.0000 0.9444
vn -0.5388 -0.0000 -0.8425
vn -0.8425 -0.0000 0.5388
vn 0.8425 -0.0000 -0.5388
vn 0.5388 -0.0000 0.8425
vn -0.7083 -0.0000 -0.7059
vn -0.7059 -0.0000 0.7083
vn 0.7059 -0.0000 -0.7083
vn 0.7083 -0.0000 0.7059
vn -0.8490 -0.0000 -0.5284
vn -0.5284 -0.0000 0.8490
vn 0.5284 -0.0000 -0.8490
vn 0.8490 -0.0000 0.5284
vn -0.9438 -0.0000 -0.3305
vn -0.3305 -0.0000 0.9438
vn 0.3305 -0.0000 -0.9438
vn 0.9438 -0.0000 0.3305
vt 0.625000 0.500000
vt 0.375000 0.500000
vt 0.625000 0.750000
vt 0.375000 0.750000
vt 0.875000 0.500000
vt 0.625000 0.250000
vt 0.125000 0.500000
vt 0.375000 0.250000
vt 0.875000 0.750000
vt 0.625000 1.000000
vt 0.625000 0.000000
vt 0.375000 1.000000
vt 0.375000 0.000000
vt 0.125000 0.750000
vt 0.625000 0.750000
vt 0.375000 0.750000
vt 0.625000 1.000000
vt 0.375000 1.000000
vt 0.625000 0.750000
vt 0.375000 0.750000
vt 0.625000 1.000000
vt 0.375000 1.000000
vt 0.625000 0.750000
vt 0.375000 0.750000
vt 0.625000 1.000000
vt 0.375000 1.000000
vt 0.625000 0.750000
vt 0.375000 0.750000
vt 0.625000 1.000000
vt 0.375000 1.000000
vt 0.625000 0.750000
vt 0.375000 0.750000
vt 0.625000 1.000000
vt 0.375000 1.000000
vt 0.625000 0.750000
vt 0.375000 0.750000
vt 0.625000 1.000000
vt 0.375000 1.000000
vt 0.625000 0.750000
vt 0.375000 0.750000
vt 0.625000 1.000000
vt 0.375000 1.000000
vt 0.625000 0.750000
vt 0.375000 0.750000
vt 0.625000 1.000000
vt 0.375000 1.000000
vt 0.625000 0.750000
vt 0.375000 0.750000
vt 0.625000 1.000000
vt 0.375000 1.000000
vt 0.625000 0.750000
vt 0.375000 0.750000
vt 0.625000 1.000000
vt 0.375000 1.000000
vt 0.625000 0.750000
vt 0.375000 0.750000
vt 0.625000 1.000000
vt 0.375000 1.000000
vt 0.625000 0.750000
vt 0.375000 0.750000
vt 0.625000 1.000000
vt 0.375000 1.000000
vt 0.625000 0.750000
vt 0.375000 0.750000
vt 0.625000 1.000000
vt 0.375000 1.000000
vt 0.625000 0.750000
vt 0.375000 0.750000
vt 0.625000 1.000000
vt 0.375000 1.000000
vt 0.625000 0.750000
vt 0.375000 0.750000
vt 0.625000 1.000000
vt 0.375000 1.000000
vt 0.625000 0.750000
vt 0.375000 0.750000
vt 0.625000 1.000000
vt 0.375000 1.000000
vt 0.625000 0.750000
vt 0.375000 0.750000
vt 0.625000 1.000000
vt 0.375000 1.000000
vt 0.625000 0.750000
vt 0.375000 0.750000
vt 0.625000 1.000000
vt 0.375000 1.000000
vt 0.625000 0.750000
vt 0.375000 0.750000
vt 0.625000 1.000000
vt 0.375000 1.000000
vt 0.625000 0.750000
vt 0.375000 0.750000
vt 0.625000 1.000000
vt 0.375000 1.000000
vt 0.625000 0.750000
vt 0.375000 0.750000
vt 0.625000 1.000000
vt 0.375000 1.000000
vt 0.625000 0.750000
vt 0.375000 0.750000
vt 0.625000 1.000000
vt 0.375000 1.000000
vt 0.375000 1.000000
vt 0.000000 0.000000
vt 0.625000 1.000000
vt 0.000000 0.000000
vt 0.625000 0.750000
vt 0.000000 0.000000
vt 0.375000 0.750000
vt 0.000000 0.000000
vt 0.375000 1.000000
vt 0.625000 1.000000
vt 0.625000 0.750000
vt 0.375000 0.750000
vt 0.625000 0.500000
vt 0.375000 0.500000
vt 0.625000 0.750000
vt 0.375000 0.750000
vt 0.875000 0.500000
vt 0.625000 0.250000
vt 0.125000 0.500000
vt 0.375000 0.250000
vt 0.875000 0.750000
vt 0.625000 1.000000
vt 0.625000 0.000000
vt 0.375000 1.000000
vt 0.375000 0.000000
vt 0.125000 0.750000
vt 0.625000 0.500000
vt 0.375000 0.500000
vt 0.625000 0.750000
vt 0.375000 0.750000
vt 0.875000 0.500000
vt 0.625000 0.250000
vt 0.125000 0.500000
vt 0.375000 0.250000
vt 0.875000 0.750000
vt 0.625000 1.000000
vt 0.625000 0.000000
vt 0.375000 1.000000
vt 0.375000 0.000000
vt 0.125000 0.750000
vt 0.625000 0.500000
vt 0.375000 0.500000
vt 0.625000 0.750000
vt 0.375000 0.750000
vt 0.875000 0.500000
vt 0.625000 0.250000
vt 0.125000 0.500000
vt 0.375000 0.250000
vt 0.875000 0.750000
vt 0.625000 1.000000
vt 0.625000 0.000000
vt 0.375000 1.000000
vt 0.375000 0.000000
vt 0.125000 0.750000
vt 0.625000 0.500000
vt 0.375000 0.500000
vt 0.625000 0.750000
vt 0.375000 0.750000
vt 0.875000 0.500000
vt 0.625000 0.250000
vt 0.125000 0.500000
vt 0.375000 0.250000
vt 0.875000 0.750000
vt 0.625000 1.000000
vt 0.625000 0.000000
vt 0.375000 1.000000
vt 0.375000 0.000000
vt 0.125000 0.750000
vt 0.625000 0.500000
vt 0.375000 0.500000
vt 0.625000 0.750000
vt 0.375000 0.750000
vt 0.875000 0.500000
vt 0.625000 0.250000
vt 0.125000 0.500000
vt 0.375000 0.250000
vt 0.875000 0.750000
vt 0.625000 1.000000
vt 0.625000 0.000000
vt 0.375000 1.000000
vt 0.375000 0.000000
vt 0.125000 0.750000
vt 0.625000 0.500000
vt 0.375000 0.500000
vt 0.625000 0.750000
vt 0.375000 0.750000
vt 0.875000 0.500000
vt 0.625000 0.250000
vt 0.125000 0.500000
vt 0.375000 0.250000
vt 0.875000 0.750000
vt 0.625000 1.000000
vt 0.625000 0.000000
vt 0.375000 1.000000
vt 0.375000 0.000000
vt 0.125000 0.750000
s 0
usemtl Material.7570
f 1/1/1 3/3/1 7/9/1 5/5/1
f 4/4/2 8/12/2 7/10/2 3/3/2
f 8/13/3 6/8/3 5/6/3 7/11/3
f 6/7/4 8/14/4 4/4/4 2/2/4
f 2/2/5 4/4/5 3/3/5 1/1/5
f 6/8/6 2/2/6 1/1/6 5/6/6
usemtl Material.7580
f 100/110/11 99/108/11 98/106/11 97/104/11
usemtl Material.7644
f 10/16/7 12/18/7 11/17/7 9/15/7
f 28/34/4 12/18/4 10/16/4 26/32/4
f 26/32/12 10/16/12 9/15/12 25/31/12
f 25/31/1 9/15/1 11/17/1 27/33/1
f 27/33/19 11/17/19 12/18/19 28/34/19
f 35/41/1 33/39/1 25/31/1 27/33/1
f 33/39/20 34/40/20 26/32/20 25/31/20
f 34/40/1 26/32/1 28/34/1 36/42/1
f 36/42/21 35/41/21 27/33/21 28/34/21
f 19/25/1 17/23/1 33/39/1 35/41/1
f 17/23/22 18/24/22 34/40/22 33/39/22
f 18/24/1 34/40/1 36/42/1 20/26/1
f 20/26/23 19/25/23 35/41/23 36/42/23
f 51/57/1 49/55/1 17/23/1 19/25/1
f 49/55/24 50/56/24 18/24/24 17/23/24
f 50/56/1 18/24/1 20/26/1 52/58/1
f 52/58/25 51/57/25 19/25/25 20/26/25
f 59/65/1 57/63/1 49/55/1 51/57/1
f 57/63/26 58/64/26 50/56/26 49/55/26
f 58/64/1 50/56/1 52/58/1 60/66/1
f 60/66/27 59/65/27 51/57/27 52/58/27
f 67/73/1 65/71/1 57/63/1 59/65/1
f 65/71/28 66/72/28 58/64/28 57/63/28
f 66/72/1 58/64/1 60/66/1 68/74/1
f 68/74/29 67/73/29 59/65/29 60/66/29
f 75/81/1 73/79/1 65/71/1 67/73/1
f 73/79/30 74/80/30 66/72/30 65/71/30
f 74/80/1 66/72/1 68/74/1 76/82/1
f 76/82/31 75/81/31 67/73/31 68/74/31
f 83/89/1 81/87/1 73/79/1 75/81/1
f 81/87/32 82/88/32 74/80/32 73/79/32
f 82/88/1 74/80/1 76/82/1 84/90/1
f 84/90/33 83/89/33 75/81/33 76/82/33
f 91/97/1 89/95/1 81/87/1 83/89/1
f 89/95/34 90/96/34 82/88/34 81/87/34
f 90/96/1 82/88/1 84/90/1 92/98/1
f 92/98/35 91/97/35 83/89/35 84/90/35
f 43/49/1 41/47/1 89/95/1 91/97/1
f 41/47/36 42/48/36 90/96/36 89/95/36
f 42/48/1 90/96/1 92/98/1 44/50/1
f 44/50/37 43/49/37 91/97/37 92/98/37
usemtl Material.7724
f 14/20/7 16/22/7 15/21/7 13/19/7
f 30/36/12 14/20/12 13/19/12 29/35/12
f 32/38/4 16/22/4 14/20/4 30/36/4
f 29/35/1 13/19/1 15/21/1 31/37/1
f 31/37/19 15/21/19 16/22/19 32/38/19
f 39/45/1 37/43/1 29/35/1 31/37/1
f 37/43/20 38/44/20 30/36/20 29/35/20
f 38/44/1 30/36/1 32/38/1 40/46/1
f 40/46/21 39/45/21 31/37/21 32/38/21
f 23/29/1 21/27/1 37/43/1 39/45/1
f 21/27/22 22/28/22 38/44/22 37/43/22
f 22/28/1 38/44/1 40/46/1 24/30/1
f 24/30/23 23/29/23 39/45/23 40/46/23
f 55/61/1 53/59/1 21/27/1 23/29/1
f 53/59/24 54/60/24 22/28/24 21/27/24
f 54/60/1 22/28/1 24/30/1 56/62/1
f 56/62/25 55/61/25 23/29/25 24/30/25
f 63/69/1 61/67/1 53/59/1 55/61/1
f 61/67/26 62/68/26 54/60/26 53/59/26
f 62/68/1 54/60/1 56/62/1 64/70/1
f 64/70/27 63/69/27 55/61/27 56/62/27
f 71/77/1 69/75/1 61/67/1 63/69/1
f 69/75/28 70/76/28 62/68/28 61/67/28
f 70/76/1 62/68/1 64/70/1 72/78/1
f 72/78/29 71/77/29 63/69/29 64/70/29
f 79/85/1 77/83/1 69/75/1 71/77/1
f 77/83/30 78/84/30 70/76/30 69/75/30
f 78/84/1 70/76/1 72/78/1 80/86/1
f 80/86/31 79/85/31 71/77/31 72/78/31
f 87/93/1 85/91/1 77/83/1 79/85/1
f 85/91/32 86/92/32 78/84/32 77/83/32
f 86/92/1 78/84/1 80/86/1 88/94/1
f 88/94/33 87/93/33 79/85/33 80/86/33
f 101/111/4 88/94/4 86/92/4 104/114/4
f 104/114/34 86/92/34 85/91/34 103/113/34
f 103/113/1 85/91/1 87/93/1 102/112/1
f 102/112/35 87/93/35 88/94/35 101/111/35
f 97/103/4 101/111/4 104/114/4 100/109/4
f 100/109/36 104/114/36 103/113/36 99/107/36
f 99/107/1 103/113/1 102/112/1 98/105/1
f 98/105/37 102/112/37 101/111/37 97/103/37
usemtl Material.7804
f 18/24/8 20/26/8 19/25/8 17/23/8
usemtl Material.7884
f 22/28/8 24/30/8 23/29/8 21/27/8
usemtl Material.7964
f 26/32/9 28/34/9 27/33/9 25/31/9
usemtl Material.8044
f 30/36/9 32/38/9 31/37/9 29/35/9
usemtl Material.8124
f 34/40/10 36/42/10 35/41/10 33/39/10
usemtl Material.8204
f 38/44/10 40/46/10 39/45/10 37/43/10
usemtl Material.8284
f 42/48/11 41/47/11 43/49/11 44/50/11
usemtl Material.8364
f 97/103/1 48/54/1 47/53/1 98/105/1
f 99/107/1 45/51/1 46/52/1 100/109/1
f 98/105/1 47/53/1 45/51/1 99/107/1
f 100/109/1 46/52/1 48/54/1 97/103/1
usemtl Material.8444
f 50/56/13 52/58/13 51/57/13 49/55/13
usemtl Material.8524
f 54/60/13 56/62/13 55/61/13 53/59/13
usemtl Material.8604
f 58/64/14 60/66/14 59/65/14 57/63/14
usemtl Material.8684
f 62/68/14 64/70/14 63/69/14 61/67/14
usemtl Material.8764
f 66/72/15 68/74/15 67/73/15 65/71/15
usemtl Material.8844
f 70/76/15 72/78/15 71/77/15 69/75/15
usemtl Material.8924
f 74/80/16 76/82/16 75/81/16 73/79/16
usemtl Material.9004
f 78/84/16 80/86/16 79/85/16 77/83/16
usemtl Material.9084
f 82/88/17 84/90/17 83/89/17 81/87/17
usemtl Material.9164
f 86/92/17 88/94/17 87/93/17 85/91/17
usemtl Material.9244
f 90/96/18 92/98/18 91/97/18 89/95/18
usemtl Material.9324
f 101/111/1 96/102/1 95/101/1 102/112/1
f 103/113/1 93/99/1 94/100/1 104/114/1
f 102/112/1 95/101/1 93/99/1 103/113/1
f 104/114/1 94/100/1 96/102/1 101/111/1
usemtl Material.9345
f 105/115/1 107/117/1 111/123/1 109/119/1
f 108/118/38 112/126/38 111/124/38 107/117/38
f 112/127/39 110/122/39 109/120/39 111/125/39
f 110/121/4 112/128/4 108/118/4 106/116/4
f 106/116/40 108/118/40 107/117/40 105/115/40
f 110/122/41 106/116/41 105/115/41 109/120/41
usemtl Material.9360
f 113/129/1 115/131/1 119/137/1 117/133/1
f 116/132/42 120/140/42 119/138/42 115/131/42
f 120/141/43 118/136/43 117/134/43 119/139/43
f 118/135/4 120/142/4 116/132/4 114/130/4
f 114/130/44 116/132/44 115/131/44 113/129/44
f 118/136/45 114/130/45 113/129/45 117/134/45
usemtl Material.9375
f 121/143/1 123/145/1 127/151/1 125/147/1
f 124/146/46 128/154/46 127/152/46 123/145/46
f 128/155/47 126/150/47 125/148/47 127/153/47
f 126/149/4 128/156/4 124/146/4 122/144/4
f 122/144/48 124/146/48 123/145/48 121/143/48
f 126/150/49 122/144/49 121/143/49 125/148/49
usemtl Material.9390
f 129/157/1 131/159/1 135/165/1 133/161/1
f 132/160/50 136/168/50 135/166/50 131/159/50
f 136/169/51 134/164/51 133/162/51 135/167/51
f 134/163/4 136/170/4 132/160/4 130/158/4
f 130/158/52 132/160/52 131/159/52 129/157/52
f 134/164/53 130/158/53 129/157/53 133/162/53
usemtl Material.9405
f 137/171/1 139/173/1 143/179/1 141/175/1
f 140/174/54 144/182/54 143/180/54 139/173/54
f 144/183/55 142/178/55 141/176/55 143/181/55
f 142/177/4 144/184/4 140/174/4 138/172/4
f 138/172/56 140/174/56 139/173/56 137/171/56
f 142/178/57 138/172/57 137/171/57 141/176/57
usemtl Material.9420
f 145/185/1 147/187/1 151/193/1 149/189/1
f 148/188/58 152/196/58 151/194/58 147/187/58
f 152/197/59 150/192/59 149/190/59 151/195/59
f 150/191/4 152/198/4 148/188/4 146/186/4
f 146/186/60 148/188/60 147/187/60 145/185/60
f 150/192/61 146/186/61 145/185/61 149/190/61
