# Blender 3.2.0
# www.blender.org
mtllib train_track_default.mtl
o Cube.003
v 1.004317 0.367484 0.731658
v 1.004317 0.177948 0.731658
v -0.995683 0.367484 0.731658
v -0.995683 0.177948 0.731658
v 1.004317 0.367484 0.468342
v 1.004317 0.177948 0.468342
v -0.995683 0.367484 0.468343
v -0.995683 0.177948 0.468343
v -0.204884 0.189536 1.000000
v -0.204884 0.000000 1.000000
v -0.204884 0.189536 -1.000000
v -0.204884 0.000000 -1.000000
v 0.204884 0.189536 1.000000
v 0.204884 0.000000 1.000000
v 0.204884 0.189536 -1.000000
v 0.204884 0.000000 -1.000000
v -0.871550 0.189536 1.000000
v -0.871550 0.000000 1.000000
v -0.871551 0.189536 -1.000000
v -0.871551 0.000000 -1.000000
v -0.461783 0.189536 1.000000
v -0.461783 0.000000 1.000000
v -0.461783 0.189536 -1.000000
v -0.461783 0.000000 -1.000000
v 0.461783 0.189536 1.000000
v 0.461783 0.000000 1.000000
v 0.461783 0.189536 -1.000000
v 0.461783 0.000000 -1.000000
v 0.871551 0.189536 1.000000
v 0.871551 0.000000 1.000000
v 0.871551 0.189536 -1.000000
v 0.871551 0.000000 -1.000000
v 1.004317 0.367484 -0.468343
v 1.004317 0.177948 -0.468343
v -0.995683 0.367484 -0.468342
v -0.995683 0.177948 -0.468342
v 1.004317 0.367484 -0.731658
v 1.004317 0.177948 -0.731658
v -0.995683 0.367484 -0.731658
v -0.995683 0.177948 -0.731658
vn -0.0000 1.0000 -0.0000
vn -1.0000 -0.0000 -0.0000
vn -0.0000 -0.0000 -1.0000
vn -0.0000 -1.0000 -0.0000
vn -0.0000 -0.0000 1.0000
vn 1.0000 -0.0000 -0.0000
vt 0.625000 0.500000
vt 0.375000 0.500000
vt 0.625000 0.750000
vt 0.375000 0.750000
vt 0.875000 0.500000
vt 0.625000 0.250000
vt 0.125000 0.500000
vt 0.375000 0.250000
vt 0.875000 0.750000
vt 0.625000 1.000000
vt 0.625000 0.000000
vt 0.375000 1.000000
vt 0.375000 0.000000
vt 0.125000 0.750000
vt 0.625000 0.500000
vt 0.375000 0.500000
vt 0.625000 0.750000
vt 0.375000 0.750000
vt 0.875000 0.500000
vt 0.625000 0.250000
vt 0.125000 0.500000
vt 0.375000 0.250000
vt 0.875000 0.750000
vt 0.625000 1.000000
vt 0.625000 0.000000
vt 0.375000 1.000000
vt 0.375000 0.000000
vt 0.125000 0.750000
vt 0.625000 0.500000
vt 0.375000 0.500000
vt 0.625000 0.750000
vt 0.375000 0.750000
vt 0.875000 0.500000
vt 0.625000 0.250000
vt 0.125000 0.500000
vt 0.375000 0.250000
vt 0.875000 0.750000
vt 0.625000 1.000000
vt 0.625000 0.000000
vt 0.375000 1.000000
vt 0.375000 0.000000
vt 0.125000 0.750000
vt 0.625000 0.500000
vt 0.375000 0.500000
vt 0.625000 0.750000
vt 0.375000 0.750000
vt 0.875000 0.500000
vt 0.625000 0.250000
vt 0.125000 0.500000
vt 0.375000 0.250000
vt 0.875000 0.750000
vt 0.625000 1.000000
vt 0.625000 0.000000
vt 0.375000 1.000000
vt 0.375000 0.000000
vt 0.125000 0.750000
vt 0.625000 0.500000
vt 0.375000 0.500000
vt 0.625000 0.750000
vt 0.375000 0.750000
vt 0.875000 0.500000
vt 0.625000 0.250000
vt 0.125000 0.500000
vt 0.375000 0.250000
vt 0.875000 0.750000
vt 0.625000 1.000000
vt 0.625000 0.000000
vt 0.375000 1.000000
vt 0.375000 0.000000
vt 0.125000 0.750000
s 0
usemtl Material.3689
f 1/1/1 5/5/1 7/9/1 3/3/1
f 4/4/2 3/3/2 7/10/2 8/12/2
f 8/13/3 7/11/3 5/6/3 6/8/3
f 6/7/4 2/2/4 4/4/4 8/14/4
f 2/2/5 1/1/5 3/3/5 4/4/5
f 6/8/6 5/6/6 1/1/6 2/2/6
usemtl Material.3690
f 9/15/1 13/19/1 15/23/1 11/17/1
f 12/18/3 11/17/3 15/24/3 16/26/3
f 16/27/6 15/25/6 13/20/6 14/22/6
f 14/21/4 10/16/4 12/18/4 16/28/4
f 10/16/2 9/15/2 11/17/2 12/18/2
f 14/22/5 13/20/5 9/15/5 10/16/5
usemtl Material.3691
f 17/29/1 21/33/1 23/37/1 19/31/1
f 20/32/3 19/31/3 23/38/3 24/40/3
f 24/41/6 23/39/6 21/34/6 22/36/6
f 22/35/4 18/30/4 20/32/4 24/42/4
f 18/30/2 17/29/2 19/31/2 20/32/2
f 22/36/5 21/34/5 17/29/5 18/30/5
usemtl Material.3692
f 25/43/1 29/47/1 31/51/1 27/45/1
f 28/46/3 27/45/3 31/52/3 32/54/3
f 32/55/6 31/53/6 29/48/6 30/50/6
f 30/49/4 26/44/4 28/46/4 32/56/4
f 26/44/2 25/43/2 27/45/2 28/46/2
f 30/50/5 29/48/5 25/43/5 26/44/5
usemtl Material.3699
f 33/57/1 37/61/1 39/65/1 35/59/1
f 36/60/2 35/59/2 39/66/2 40/68/2
f 40/69/3 39/67/3 37/62/3 38/64/3
f 38/63/4 34/58/4 36/60/4 40/70/4
f 34/58/5 33/57/5 35/59/5 36/60/5
f 38/64/6 37/62/6 33/57/6 34/58/6
